<?xml version="1.0" encoding="UTF-8" standalone="no"?>
<!DOCTYPE svg PUBLIC "-//W3C//DTD SVG 1.1//EN" "http://www.w3.org/Graphics/SVG/1.1/DTD/svg11.dtd">
<svg width="100%" height="100%" viewBox="0 0 368 98" version="1.1" xmlns="http://www.w3.org/2000/svg" xmlns:xlink="http://www.w3.org/1999/xlink" xml:space="preserve" xmlns:serif="http://www.serif.com/" style="fill-rule:evenodd;clip-rule:evenodd;stroke-linejoin:round;stroke-miterlimit:2;">
    <g>
        <path d="M121.548,97.488L121.548,8.369L134.939,8.369C140.903,8.369 145.656,8.831 149.196,9.755C152.774,10.678 155.795,12.236 158.258,14.43C160.759,16.7 162.741,19.528 164.203,22.915C165.703,26.339 166.454,29.802 166.454,33.304C166.454,39.692 164.01,45.098 159.123,49.523C163.856,51.139 167.589,53.967 170.321,58.008C173.091,62.01 174.477,66.666 174.477,71.976C174.477,78.941 172.014,84.828 167.089,89.638C164.126,92.601 160.797,94.66 157.103,95.814C153.063,96.93 148.003,97.488 141.923,97.488L121.548,97.488ZM134.997,46.637L139.21,46.637C144.213,46.637 147.878,45.531 150.206,43.318C152.534,41.106 153.698,37.845 153.698,33.535C153.698,29.341 152.505,26.156 150.119,23.982C147.734,21.808 144.27,20.721 139.73,20.721L134.997,20.721L134.997,46.637ZM134.997,84.847L143.308,84.847C149.388,84.847 153.852,83.654 156.699,81.269C159.701,78.691 161.201,75.42 161.201,71.456C161.201,67.608 159.758,64.376 156.872,61.76C154.063,59.181 149.042,57.892 141.808,57.892L134.997,57.892L134.997,84.847Z" style="fill-rule:nonzero;"/>
        <rect x="197.173" y="0" width="12.987" height="97.488" style="fill-rule:nonzero;"/>
        <path d="M247.806,41.269L247.806,97.488L234.819,97.488L234.819,41.269L247.806,41.269ZM232.857,17.893C232.857,15.623 233.684,13.66 235.338,12.006C236.993,10.351 238.975,9.524 241.284,9.524C243.631,9.524 245.632,10.351 247.286,12.006C248.941,13.622 249.768,15.603 249.768,17.951C249.768,20.298 248.941,22.299 247.286,23.953C245.67,25.608 243.689,26.435 241.341,26.435C238.994,26.435 236.993,25.608 235.338,23.953C233.684,22.299 232.857,20.279 232.857,17.893Z" style="fill-rule:nonzero;"/>
        <path d="M285.856,53.39L285.856,97.488L272.869,97.488L272.869,53.39L267.328,53.39L267.328,41.269L272.869,41.269L272.869,20.663L285.856,20.663L285.856,41.269L295.957,41.269L295.957,53.39L285.856,53.39Z" style="fill-rule:nonzero;"/>
        <path d="M331.64,85.251L365.059,85.251L365.059,97.488L305.897,97.488L342.318,53.39L313.631,53.39L313.631,41.269L368.003,41.269L331.64,85.251Z" style="fill-rule:nonzero;"/>
    </g>
    <g>
        <g>
            <circle cx="49" cy="49" r="49" style="fill:rgb(1,99,63);"/>
            <circle cx="49" cy="49" r="42.318" style="fill:rgb(0,118,114);"/>
            <circle cx="49" cy="49" r="35.636" style="fill:rgb(62,149,147);"/>
            <circle cx="49" cy="49" r="28.955" style="fill:rgb(252,176,64);"/>
            <circle cx="49" cy="49" r="22.273" style="fill:rgb(233,86,41);"/>
            <circle cx="49" cy="49" r="15.591" style="fill:rgb(230,29,50);"/>
        </g>
        <g>
            <path d="M36.758,83.473C36.564,83.473 36.369,83.431 36.184,83.341C35.585,83.05 35.296,82.363 35.506,81.733L45.497,51.761L35.437,51.761C34.996,51.761 34.583,51.54 34.338,51.173C34.092,50.805 34.047,50.339 34.217,49.932L47.431,18.22C47.636,17.727 48.117,17.406 48.651,17.406L61.203,17.406C61.651,17.406 62.069,17.633 62.312,18.008C62.556,18.385 62.592,18.858 62.41,19.266L52.011,42.511L61.864,42.511C62.349,42.511 62.796,42.778 63.027,43.204C63.258,43.63 63.236,44.15 62.97,44.555L37.864,82.874C37.612,83.26 37.192,83.473 36.758,83.473Z" style="fill:rgb(244,232,210);fill-rule:nonzero;"/>
        </g>
    </g>
</svg>
