<?xml version="1.0" encoding="UTF-8" standalone="no"?>
<!DOCTYPE svg PUBLIC "-//W3C//DTD SVG 1.1//EN" "http://www.w3.org/Graphics/SVG/1.1/DTD/svg11.dtd">
<svg width="100%" height="100%" viewBox="0 0 368 98" version="1.1" xmlns="http://www.w3.org/2000/svg" xmlns:xlink="http://www.w3.org/1999/xlink" xml:space="preserve" xmlns:serif="http://www.serif.com/" style="fill-rule:evenodd;clip-rule:evenodd;stroke-linejoin:round;stroke-miterlimit:2;">
    <g>
        <path d="M121.548,97.488L121.548,8.369L134.939,8.369C140.903,8.369 145.656,8.831 149.196,9.755C152.774,10.678 155.795,12.236 158.258,14.43C160.759,16.7 162.741,19.528 164.203,22.915C165.703,26.339 166.454,29.802 166.454,33.304C166.454,39.692 164.01,45.098 159.123,49.523C163.856,51.139 167.589,53.967 170.321,58.008C173.091,62.01 174.477,66.666 174.477,71.976C174.477,78.941 172.014,84.828 167.089,89.638C164.126,92.601 160.797,94.66 157.103,95.814C153.063,96.93 148.003,97.488 141.923,97.488L121.548,97.488ZM134.997,46.637L139.21,46.637C144.213,46.637 147.878,45.531 150.206,43.318C152.534,41.106 153.698,37.845 153.698,33.535C153.698,29.341 152.505,26.156 150.119,23.982C147.734,21.808 144.27,20.721 139.73,20.721L134.997,20.721L134.997,46.637ZM134.997,84.847L143.308,84.847C149.388,84.847 153.852,83.654 156.699,81.269C159.701,78.691 161.201,75.42 161.201,71.456C161.201,67.608 159.758,64.376 156.872,61.76C154.063,59.181 149.042,57.892 141.808,57.892L134.997,57.892L134.997,84.847Z" style="fill-rule:nonzero;"/>
        <rect x="197.173" y="0" width="12.987" height="97.488" style="fill-rule:nonzero;"/>
        <path d="M247.806,41.269L247.806,97.488L234.819,97.488L234.819,41.269L247.806,41.269ZM232.857,17.893C232.857,15.623 233.684,13.66 235.338,12.006C236.993,10.351 238.975,9.524 241.284,9.524C243.631,9.524 245.632,10.351 247.286,12.006C248.941,13.622 249.768,15.603 249.768,17.951C249.768,20.298 248.941,22.299 247.286,23.953C245.67,25.608 243.689,26.435 241.341,26.435C238.994,26.435 236.993,25.608 235.338,23.953C233.684,22.299 232.857,20.279 232.857,17.893Z" style="fill-rule:nonzero;"/>
        <path d="M285.856,53.39L285.856,97.488L272.869,97.488L272.869,53.39L267.328,53.39L267.328,41.269L272.869,41.269L272.869,20.663L285.856,20.663L285.856,41.269L295.957,41.269L295.957,53.39L285.856,53.39Z" style="fill-rule:nonzero;"/>
        <path d="M331.64,85.251L365.059,85.251L365.059,97.488L305.897,97.488L342.318,53.39L313.631,53.39L313.631,41.269L368.003,41.269L331.64,85.251Z" style="fill-rule:nonzero;"/>
    </g>
    <g>
        <g>
            <circle cx="44.5" cy="52.9" r="44.5" style="fill:rgb(1,99,63);"/>
            <circle cx="44.5" cy="52.9" r="38.432" style="fill:rgb(0,118,114);"/>
            <circle cx="44.5" cy="52.9" r="32.364" style="fill:rgb(62,149,147);"/>
            <circle cx="44.5" cy="52.9" r="26.295" style="fill:rgb(252,176,64);"/>
            <circle cx="44.5" cy="52.9" r="20.227" style="fill:rgb(233,86,41);"/>
            <circle cx="44.5" cy="52.9" r="14.159" style="fill:rgb(230,29,50);"/>
        </g>
        <g>
            <path d="M33.383,84.207C33.206,84.207 33.029,84.169 32.861,84.087C32.317,83.823 32.054,83.199 32.245,82.627L41.318,55.407L32.183,55.407C31.782,55.407 31.407,55.207 31.184,54.873C30.961,54.54 30.92,54.116 31.075,53.746L43.075,24.946C43.261,24.499 43.698,24.207 44.183,24.207L55.583,24.207C55.989,24.207 56.369,24.414 56.589,24.754C56.811,25.096 56.844,25.526 56.678,25.897L47.234,47.007L56.183,47.007C56.623,47.007 57.029,47.25 57.239,47.636C57.449,48.024 57.428,48.495 57.187,48.864L34.387,83.664C34.158,84.014 33.776,84.207 33.383,84.207Z" style="fill:rgb(244,232,210);fill-rule:nonzero;"/>
        </g>
    </g>
</svg>
